<svg width="142" height="75" viewBox="0 0 142 75" fill="none" xmlns="http://www.w3.org/2000/svg">
<path d="M51.7461 38H46.7515V20.5835H27.7563V38H22.7876V0.320312H27.7563V16.5205H46.7515V0.320312H51.7461V38ZM87.0967 0.320312V25.9404C87.0794 29.4945 85.958 32.4015 83.7324 34.6616C81.5241 36.9217 78.5221 38.1898 74.7266 38.4658L73.4067 38.5176C69.2834 38.5176 65.9967 37.4048 63.5469 35.1792C61.097 32.9536 59.8548 29.8913 59.8203 25.9922V0.320312H64.7373V25.8369C64.7373 28.5628 65.4878 30.6849 66.9888 32.2031C68.4897 33.7041 70.6291 34.4546 73.4067 34.4546C76.2189 34.4546 78.3669 33.7041 79.8506 32.2031C81.3516 30.7021 82.1021 28.5887 82.1021 25.8628V0.320312H87.0967ZM94.938 38V0.320312H107.256C111.345 0.320312 114.416 1.16569 116.469 2.85645C118.54 4.5472 119.575 7.04883 119.575 10.3613C119.575 12.1211 119.074 13.6825 118.074 15.0454C117.073 16.3911 115.71 17.4349 113.985 18.1768C116.021 18.7461 117.625 19.833 118.798 21.4375C119.989 23.0247 120.584 24.9225 120.584 27.1309C120.584 30.5124 119.488 33.1693 117.297 35.1016C115.106 37.0339 112.009 38 108.007 38H94.938ZM99.9067 20.3765V33.937H108.11C110.422 33.937 112.242 33.3418 113.571 32.1514C114.917 30.9437 115.589 29.2874 115.589 27.1826C115.589 22.6452 113.122 20.3765 108.188 20.3765H99.9067ZM99.9067 16.3911H107.412C109.585 16.3911 111.319 15.8477 112.613 14.7607C113.924 13.6738 114.58 12.1987 114.58 10.3354C114.58 8.26514 113.976 6.76416 112.769 5.83252C111.561 4.88363 109.723 4.40918 107.256 4.40918H99.9067V16.3911ZM8.89795 56H7.48438V51.0708H2.1084V56H0.702148V45.3359H2.1084V49.9209H7.48438V45.3359H8.89795V56ZM10.8242 51.9644C10.8242 51.188 10.9756 50.4897 11.2783 49.8696C11.5859 49.2495 12.0107 48.771 12.5527 48.4341C13.0996 48.0972 13.7222 47.9287 14.4204 47.9287C15.4995 47.9287 16.3711 48.3022 17.0352 49.0493C17.7041 49.7964 18.0386 50.79 18.0386 52.0303V52.1255C18.0386 52.897 17.8896 53.5903 17.5918 54.2056C17.2988 54.8159 16.8765 55.292 16.3247 55.6338C15.7778 55.9756 15.1479 56.1465 14.4351 56.1465C13.3608 56.1465 12.4893 55.7729 11.8203 55.0259C11.1562 54.2788 10.8242 53.29 10.8242 52.0596V51.9644ZM12.1865 52.1255C12.1865 53.0044 12.3892 53.71 12.7944 54.2422C13.2046 54.7744 13.7515 55.0405 14.4351 55.0405C15.1235 55.0405 15.6704 54.772 16.0757 54.2349C16.481 53.6929 16.6836 52.936 16.6836 51.9644C16.6836 51.0952 16.4761 50.3921 16.061 49.855C15.6509 49.313 15.104 49.042 14.4204 49.042C13.7515 49.042 13.2119 49.3081 12.8018 49.8403C12.3916 50.3726 12.1865 51.1343 12.1865 52.1255ZM24.3521 53.8979C24.3521 53.5317 24.2129 53.2485 23.9346 53.0483C23.6611 52.8433 23.1802 52.6675 22.4917 52.521C21.8081 52.3745 21.2637 52.1987 20.8584 51.9937C20.458 51.7886 20.1602 51.5444 19.9648 51.2612C19.7744 50.978 19.6792 50.6411 19.6792 50.2505C19.6792 49.6011 19.9526 49.0518 20.4995 48.6025C21.0513 48.1533 21.7544 47.9287 22.6089 47.9287C23.5073 47.9287 24.2349 48.1606 24.7915 48.6245C25.353 49.0884 25.6338 49.6816 25.6338 50.4043H24.2715C24.2715 50.0332 24.1128 49.7134 23.7954 49.4448C23.4829 49.1763 23.0874 49.042 22.6089 49.042C22.1157 49.042 21.73 49.1494 21.4517 49.3643C21.1733 49.5791 21.0342 49.8599 21.0342 50.2065C21.0342 50.5337 21.1636 50.7803 21.4224 50.9463C21.6812 51.1123 22.1475 51.271 22.8213 51.4224C23.5 51.5737 24.0493 51.7544 24.4692 51.9644C24.8892 52.1743 25.1992 52.4282 25.3994 52.7261C25.6045 53.019 25.707 53.3779 25.707 53.8027C25.707 54.5107 25.4238 55.0796 24.8574 55.5093C24.291 55.9341 23.5562 56.1465 22.6528 56.1465C22.0181 56.1465 21.4565 56.0342 20.9683 55.8096C20.48 55.585 20.0967 55.2725 19.8184 54.8721C19.5449 54.4668 19.4082 54.0298 19.4082 53.561H20.7632C20.7876 54.0151 20.9683 54.3765 21.3052 54.645C21.647 54.9087 22.0962 55.0405 22.6528 55.0405C23.1655 55.0405 23.5757 54.938 23.8833 54.7329C24.1958 54.5229 24.3521 54.2446 24.3521 53.8979ZM34.1665 52.1255C34.1665 53.3315 33.8906 54.3032 33.3389 55.0405C32.7871 55.7778 32.04 56.1465 31.0977 56.1465C30.1357 56.1465 29.3789 55.8413 28.8271 55.231V59.0469H27.4722V48.0752H28.71L28.7759 48.9541C29.3276 48.2705 30.0942 47.9287 31.0757 47.9287C32.0278 47.9287 32.7798 48.2876 33.3315 49.0054C33.8882 49.7231 34.1665 50.7217 34.1665 52.001V52.1255ZM32.8115 51.9717C32.8115 51.0781 32.6211 50.3726 32.2402 49.855C31.8594 49.3374 31.3369 49.0786 30.6729 49.0786C29.8525 49.0786 29.2373 49.4424 28.8271 50.1699V53.9565C29.2324 54.6792 29.8525 55.0405 30.6875 55.0405C31.3369 55.0405 31.8521 54.7842 32.2329 54.2715C32.6187 53.7539 32.8115 52.9873 32.8115 51.9717ZM37.3672 56H36.0122V48.0752H37.3672V56ZM35.9023 45.9731C35.9023 45.7534 35.9683 45.5679 36.1001 45.4165C36.2368 45.2651 36.437 45.1895 36.7007 45.1895C36.9644 45.1895 37.1646 45.2651 37.3013 45.4165C37.438 45.5679 37.5063 45.7534 37.5063 45.9731C37.5063 46.1929 37.438 46.376 37.3013 46.5225C37.1646 46.6689 36.9644 46.7422 36.7007 46.7422C36.437 46.7422 36.2368 46.6689 36.1001 46.5225C35.9683 46.376 35.9023 46.1929 35.9023 45.9731ZM41.3809 46.1562V48.0752H42.8604V49.1226H41.3809V54.0371C41.3809 54.3545 41.4468 54.5938 41.5786 54.7549C41.7104 54.9111 41.9351 54.9893 42.2524 54.9893C42.4087 54.9893 42.6235 54.96 42.897 54.9014V56C42.5405 56.0977 42.1938 56.1465 41.8569 56.1465C41.2515 56.1465 40.7949 55.9634 40.4873 55.5972C40.1797 55.231 40.0259 54.7109 40.0259 54.0371V49.1226H38.583V48.0752H40.0259V46.1562H41.3809ZM49.3423 56C49.2642 55.8438 49.2007 55.5654 49.1519 55.165C48.522 55.8193 47.77 56.1465 46.896 56.1465C46.1147 56.1465 45.4727 55.9268 44.9697 55.4873C44.4717 55.043 44.2227 54.4814 44.2227 53.8027C44.2227 52.9775 44.5352 52.3379 45.1602 51.8838C45.79 51.4248 46.6738 51.1953 47.8115 51.1953H49.1299V50.5728C49.1299 50.0991 48.9883 49.7231 48.7051 49.4448C48.4219 49.1616 48.0044 49.02 47.4526 49.02C46.9692 49.02 46.564 49.1421 46.2368 49.3862C45.9097 49.6304 45.7461 49.9258 45.7461 50.2725H44.3838C44.3838 49.877 44.5229 49.4961 44.8013 49.1299C45.0845 48.7588 45.4653 48.4658 45.9438 48.251C46.4272 48.0361 46.957 47.9287 47.5332 47.9287C48.4463 47.9287 49.1616 48.1582 49.6792 48.6172C50.1968 49.0713 50.4653 49.6987 50.4849 50.4995V54.147C50.4849 54.8745 50.5776 55.4531 50.7632 55.8828V56H49.3423ZM47.0938 54.9673C47.5186 54.9673 47.9214 54.8574 48.3022 54.6377C48.6831 54.418 48.959 54.1323 49.1299 53.7808V52.1548H48.0679C46.4077 52.1548 45.5776 52.6406 45.5776 53.6123C45.5776 54.0371 45.7192 54.3691 46.0024 54.6084C46.2856 54.8477 46.6494 54.9673 47.0938 54.9673ZM54.0811 56H52.7261V44.75H54.0811V56ZM67.6968 45.3359V52.5869C67.6919 53.5928 67.3745 54.4155 66.7446 55.0552C66.1196 55.6948 65.27 56.0537 64.1958 56.1318L63.8223 56.1465C62.6553 56.1465 61.7251 55.8315 61.0317 55.2017C60.3384 54.5718 59.9868 53.7051 59.9771 52.6016V45.3359H61.3687V52.5576C61.3687 53.3291 61.5811 53.9297 62.0059 54.3594C62.4307 54.7842 63.0361 54.9966 63.8223 54.9966C64.6182 54.9966 65.2261 54.7842 65.646 54.3594C66.0708 53.9346 66.2832 53.3364 66.2832 52.5649V45.3359H67.6968ZM70.9854 48.0752L71.0293 49.0713C71.6348 48.3096 72.4258 47.9287 73.4023 47.9287C75.0771 47.9287 75.9219 48.8735 75.9365 50.7632V56H74.5815V50.7559C74.5767 50.1846 74.4448 49.7622 74.186 49.4888C73.9321 49.2153 73.5342 49.0786 72.9922 49.0786C72.5527 49.0786 72.167 49.1958 71.835 49.4302C71.5029 49.6646 71.2441 49.9722 71.0586 50.353V56H69.7036V48.0752H70.9854ZM79.4521 56H78.0972V48.0752H79.4521V56ZM77.9873 45.9731C77.9873 45.7534 78.0532 45.5679 78.1851 45.4165C78.3218 45.2651 78.522 45.1895 78.7856 45.1895C79.0493 45.1895 79.2495 45.2651 79.3862 45.4165C79.5229 45.5679 79.5913 45.7534 79.5913 45.9731C79.5913 46.1929 79.5229 46.376 79.3862 46.5225C79.2495 46.6689 79.0493 46.7422 78.7856 46.7422C78.522 46.7422 78.3218 46.6689 78.1851 46.5225C78.0532 46.376 77.9873 46.1929 77.9873 45.9731ZM84.2422 54.1616L86.2051 48.0752H87.5894L84.7476 56H83.7148L80.8438 48.0752H82.228L84.2422 54.1616ZM92.0791 56.1465C91.0049 56.1465 90.1309 55.7949 89.457 55.0918C88.7832 54.3838 88.4463 53.439 88.4463 52.2573V52.0083C88.4463 51.2222 88.5952 50.5215 88.8931 49.9062C89.1958 49.2861 89.6157 48.8027 90.1528 48.4561C90.6948 48.1045 91.2808 47.9287 91.9106 47.9287C92.9409 47.9287 93.7417 48.2681 94.313 48.9468C94.8843 49.6255 95.1699 50.5972 95.1699 51.8618V52.4258H89.8013C89.8208 53.207 90.0479 53.8394 90.4824 54.3228C90.9219 54.8013 91.4785 55.0405 92.1523 55.0405C92.6309 55.0405 93.0361 54.9429 93.3682 54.7476C93.7002 54.5522 93.9907 54.2935 94.2397 53.9712L95.0674 54.6157C94.4033 55.6362 93.4072 56.1465 92.0791 56.1465ZM91.9106 49.042C91.3638 49.042 90.9048 49.2422 90.5337 49.6426C90.1626 50.0381 89.9331 50.5947 89.8452 51.3125H93.8149V51.21C93.7759 50.5215 93.5903 49.9893 93.2583 49.6133C92.9263 49.2324 92.4771 49.042 91.9106 49.042ZM100.575 49.291C100.37 49.2568 100.148 49.2397 99.9087 49.2397C99.02 49.2397 98.417 49.6182 98.0996 50.375V56H96.7446V48.0752H98.063L98.085 48.9907C98.5293 48.2827 99.1592 47.9287 99.9746 47.9287C100.238 47.9287 100.438 47.9629 100.575 48.0312V49.291ZM106.442 53.8979C106.442 53.5317 106.303 53.2485 106.024 53.0483C105.751 52.8433 105.27 52.6675 104.582 52.521C103.898 52.3745 103.354 52.1987 102.948 51.9937C102.548 51.7886 102.25 51.5444 102.055 51.2612C101.864 50.978 101.769 50.6411 101.769 50.2505C101.769 49.6011 102.042 49.0518 102.589 48.6025C103.141 48.1533 103.844 47.9287 104.699 47.9287C105.597 47.9287 106.325 48.1606 106.881 48.6245C107.443 49.0884 107.724 49.6816 107.724 50.4043H106.361C106.361 50.0332 106.203 49.7134 105.885 49.4448C105.573 49.1763 105.177 49.042 104.699 49.042C104.206 49.042 103.82 49.1494 103.542 49.3643C103.263 49.5791 103.124 49.8599 103.124 50.2065C103.124 50.5337 103.253 50.7803 103.512 50.9463C103.771 51.1123 104.237 51.271 104.911 51.4224C105.59 51.5737 106.139 51.7544 106.559 51.9644C106.979 52.1743 107.289 52.4282 107.489 52.7261C107.694 53.019 107.797 53.3779 107.797 53.8027C107.797 54.5107 107.514 55.0796 106.947 55.5093C106.381 55.9341 105.646 56.1465 104.743 56.1465C104.108 56.1465 103.546 56.0342 103.058 55.8096C102.57 55.585 102.187 55.2725 101.908 54.8721C101.635 54.4668 101.498 54.0298 101.498 53.561H102.853C102.877 54.0151 103.058 54.3765 103.395 54.645C103.737 54.9087 104.186 55.0405 104.743 55.0405C105.255 55.0405 105.666 54.938 105.973 54.7329C106.286 54.5229 106.442 54.2446 106.442 53.8979ZM111.034 56H109.679V48.0752H111.034V56ZM109.569 45.9731C109.569 45.7534 109.635 45.5679 109.767 45.4165C109.904 45.2651 110.104 45.1895 110.368 45.1895C110.631 45.1895 110.832 45.2651 110.968 45.4165C111.105 45.5679 111.173 45.7534 111.173 45.9731C111.173 46.1929 111.105 46.376 110.968 46.5225C110.832 46.6689 110.631 46.7422 110.368 46.7422C110.104 46.7422 109.904 46.6689 109.767 46.5225C109.635 46.376 109.569 46.1929 109.569 45.9731ZM115.048 46.1562V48.0752H116.527V49.1226H115.048V54.0371C115.048 54.3545 115.114 54.5938 115.246 54.7549C115.377 54.9111 115.602 54.9893 115.919 54.9893C116.076 54.9893 116.291 54.96 116.564 54.9014V56C116.208 56.0977 115.861 56.1465 115.524 56.1465C114.918 56.1465 114.462 55.9634 114.154 55.5972C113.847 55.231 113.693 54.7109 113.693 54.0371V49.1226H112.25V48.0752H113.693V46.1562H115.048ZM123.009 56C122.931 55.8438 122.868 55.5654 122.819 55.165C122.189 55.8193 121.437 56.1465 120.563 56.1465C119.782 56.1465 119.14 55.9268 118.637 55.4873C118.139 55.043 117.89 54.4814 117.89 53.8027C117.89 52.9775 118.202 52.3379 118.827 51.8838C119.457 51.4248 120.341 51.1953 121.479 51.1953H122.797V50.5728C122.797 50.0991 122.655 49.7231 122.372 49.4448C122.089 49.1616 121.671 49.02 121.12 49.02C120.636 49.02 120.231 49.1421 119.904 49.3862C119.577 49.6304 119.413 49.9258 119.413 50.2725H118.051C118.051 49.877 118.19 49.4961 118.468 49.1299C118.751 48.7588 119.132 48.4658 119.611 48.251C120.094 48.0361 120.624 47.9287 121.2 47.9287C122.113 47.9287 122.829 48.1582 123.346 48.6172C123.864 49.0713 124.132 49.6987 124.152 50.4995V54.147C124.152 54.8745 124.245 55.4531 124.43 55.8828V56H123.009ZM120.761 54.9673C121.186 54.9673 121.588 54.8574 121.969 54.6377C122.35 54.418 122.626 54.1323 122.797 53.7808V52.1548H121.735C120.075 52.1548 119.245 52.6406 119.245 53.6123C119.245 54.0371 119.386 54.3691 119.669 54.6084C119.953 54.8477 120.316 54.9673 120.761 54.9673ZM122.013 44.75H123.654L121.691 46.9033H120.6L122.013 44.75ZM130.106 49.291C129.901 49.2568 129.679 49.2397 129.44 49.2397C128.551 49.2397 127.948 49.6182 127.631 50.375V56H126.276V48.0752H127.594L127.616 48.9907C128.061 48.2827 128.69 47.9287 129.506 47.9287C129.77 47.9287 129.97 47.9629 130.106 48.0312V49.291ZM132.831 56H131.476V48.0752H132.831V56ZM131.366 45.9731C131.366 45.7534 131.432 45.5679 131.564 45.4165C131.701 45.2651 131.901 45.1895 132.165 45.1895C132.428 45.1895 132.628 45.2651 132.765 45.4165C132.902 45.5679 132.97 45.7534 132.97 45.9731C132.97 46.1929 132.902 46.376 132.765 46.5225C132.628 46.6689 132.428 46.7422 132.165 46.7422C131.901 46.7422 131.701 46.6689 131.564 46.5225C131.432 46.376 131.366 46.1929 131.366 45.9731ZM134.647 51.9644C134.647 51.188 134.799 50.4897 135.102 49.8696C135.409 49.2495 135.834 48.771 136.376 48.4341C136.923 48.0972 137.545 47.9287 138.244 47.9287C139.323 47.9287 140.194 48.3022 140.858 49.0493C141.527 49.7964 141.862 50.79 141.862 52.0303V52.1255C141.862 52.897 141.713 53.5903 141.415 54.2056C141.122 54.8159 140.7 55.292 140.148 55.6338C139.601 55.9756 138.971 56.1465 138.258 56.1465C137.184 56.1465 136.312 55.7729 135.644 55.0259C134.979 54.2788 134.647 53.29 134.647 52.0596V51.9644ZM136.01 52.1255C136.01 53.0044 136.212 53.71 136.618 54.2422C137.028 54.7744 137.575 55.0405 138.258 55.0405C138.947 55.0405 139.494 54.772 139.899 54.2349C140.304 53.6929 140.507 52.936 140.507 51.9644C140.507 51.0952 140.299 50.3921 139.884 49.855C139.474 49.313 138.927 49.042 138.244 49.042C137.575 49.042 137.035 49.3081 136.625 49.8403C136.215 50.3726 136.01 51.1343 136.01 52.1255ZM37.0303 69.9717C37.0303 68.7559 37.3184 67.7793 37.8945 67.042C38.4707 66.2998 39.2251 65.9287 40.1577 65.9287C41.0854 65.9287 41.8203 66.2461 42.3623 66.8809V62.75H43.7173V74H42.4722L42.4062 73.1504C41.8643 73.8145 41.1099 74.1465 40.1431 74.1465C39.2251 74.1465 38.4756 73.7705 37.8945 73.0186C37.3184 72.2666 37.0303 71.2852 37.0303 70.0742V69.9717ZM38.3853 70.1255C38.3853 71.0239 38.5708 71.7271 38.9419 72.2349C39.313 72.7427 39.8257 72.9966 40.48 72.9966C41.3394 72.9966 41.9668 72.6108 42.3623 71.8394V68.1992C41.957 67.4521 41.3345 67.0786 40.4946 67.0786C39.8306 67.0786 39.313 67.335 38.9419 67.8477C38.5708 68.3604 38.3853 69.1196 38.3853 70.1255ZM49.1152 74.1465C48.041 74.1465 47.167 73.7949 46.4932 73.0918C45.8193 72.3838 45.4824 71.439 45.4824 70.2573V70.0083C45.4824 69.2222 45.6313 68.5215 45.9292 67.9062C46.2319 67.2861 46.6519 66.8027 47.189 66.4561C47.731 66.1045 48.3169 65.9287 48.9468 65.9287C49.9771 65.9287 50.7778 66.2681 51.3491 66.9468C51.9204 67.6255 52.2061 68.5972 52.2061 69.8618V70.4258H46.8374C46.8569 71.207 47.084 71.8394 47.5186 72.3228C47.958 72.8013 48.5146 73.0405 49.1885 73.0405C49.667 73.0405 50.0723 72.9429 50.4043 72.7476C50.7363 72.5522 51.0269 72.2935 51.2759 71.9712L52.1035 72.6157C51.4395 73.6362 50.4434 74.1465 49.1152 74.1465ZM48.9468 67.042C48.3999 67.042 47.9409 67.2422 47.5698 67.6426C47.1987 68.0381 46.9692 68.5947 46.8813 69.3125H50.8511V69.21C50.812 68.5215 50.6265 67.9893 50.2944 67.6133C49.9624 67.2324 49.5132 67.042 48.9468 67.042ZM57.7139 74V63.3359H61.2002C62.3574 63.3359 63.2266 63.5752 63.8076 64.0537C64.3936 64.5322 64.6865 65.2402 64.6865 66.1777C64.6865 66.6758 64.5449 67.1177 64.2617 67.5034C63.9785 67.8843 63.5928 68.1797 63.1045 68.3896C63.6807 68.5508 64.1348 68.8584 64.4668 69.3125C64.8037 69.7617 64.9722 70.2988 64.9722 70.9238C64.9722 71.8809 64.6621 72.6328 64.042 73.1797C63.4219 73.7266 62.5454 74 61.4126 74H57.7139ZM59.1201 69.0122V72.8501H61.4419C62.0962 72.8501 62.6113 72.6816 62.9873 72.3447C63.3682 72.0029 63.5586 71.5342 63.5586 70.9385C63.5586 69.6543 62.8604 69.0122 61.4639 69.0122H59.1201ZM59.1201 67.8843H61.2441C61.8594 67.8843 62.3501 67.7305 62.7163 67.4229C63.0874 67.1152 63.2729 66.6978 63.2729 66.1704C63.2729 65.5845 63.1021 65.1597 62.7603 64.896C62.4185 64.6274 61.8984 64.4932 61.2002 64.4932H59.1201V67.8843ZM70.6777 67.291C70.4727 67.2568 70.2505 67.2397 70.0112 67.2397C69.1226 67.2397 68.5195 67.6182 68.2021 68.375V74H66.8472V66.0752H68.1655L68.1875 66.9907C68.6318 66.2827 69.2617 65.9287 70.0771 65.9287C70.3408 65.9287 70.541 65.9629 70.6777 66.0312V67.291ZM76.5298 74C76.4517 73.8438 76.3882 73.5654 76.3394 73.165C75.7095 73.8193 74.9575 74.1465 74.0835 74.1465C73.3022 74.1465 72.6602 73.9268 72.1572 73.4873C71.6592 73.043 71.4102 72.4814 71.4102 71.8027C71.4102 70.9775 71.7227 70.3379 72.3477 69.8838C72.9775 69.4248 73.8613 69.1953 74.999 69.1953H76.3174V68.5728C76.3174 68.0991 76.1758 67.7231 75.8926 67.4448C75.6094 67.1616 75.1919 67.02 74.6401 67.02C74.1567 67.02 73.7515 67.1421 73.4243 67.3862C73.0972 67.6304 72.9336 67.9258 72.9336 68.2725H71.5713C71.5713 67.877 71.7104 67.4961 71.9888 67.1299C72.272 66.7588 72.6528 66.4658 73.1313 66.251C73.6147 66.0361 74.1445 65.9287 74.7207 65.9287C75.6338 65.9287 76.3491 66.1582 76.8667 66.6172C77.3843 67.0713 77.6528 67.6987 77.6724 68.4995V72.147C77.6724 72.8745 77.7651 73.4531 77.9507 73.8828V74H76.5298ZM74.2812 72.9673C74.7061 72.9673 75.1089 72.8574 75.4897 72.6377C75.8706 72.418 76.1465 72.1323 76.3174 71.7808V70.1548H75.2554C73.5952 70.1548 72.7651 70.6406 72.7651 71.6123C72.7651 72.0371 72.9067 72.3691 73.1899 72.6084C73.4731 72.8477 73.8369 72.9673 74.2812 72.9673ZM84.4106 71.8979C84.4106 71.5317 84.2715 71.2485 83.9932 71.0483C83.7197 70.8433 83.2388 70.6675 82.5503 70.521C81.8667 70.3745 81.3223 70.1987 80.917 69.9937C80.5166 69.7886 80.2188 69.5444 80.0234 69.2612C79.833 68.978 79.7378 68.6411 79.7378 68.2505C79.7378 67.6011 80.0112 67.0518 80.5581 66.6025C81.1099 66.1533 81.813 65.9287 82.6675 65.9287C83.5659 65.9287 84.2935 66.1606 84.8501 66.6245C85.4116 67.0884 85.6924 67.6816 85.6924 68.4043H84.3301C84.3301 68.0332 84.1714 67.7134 83.854 67.4448C83.5415 67.1763 83.146 67.042 82.6675 67.042C82.1743 67.042 81.7886 67.1494 81.5103 67.3643C81.2319 67.5791 81.0928 67.8599 81.0928 68.2065C81.0928 68.5337 81.2222 68.7803 81.481 68.9463C81.7397 69.1123 82.2061 69.271 82.8799 69.4224C83.5586 69.5737 84.1079 69.7544 84.5278 69.9644C84.9478 70.1743 85.2578 70.4282 85.458 70.7261C85.6631 71.019 85.7656 71.3779 85.7656 71.8027C85.7656 72.5107 85.4824 73.0796 84.916 73.5093C84.3496 73.9341 83.6147 74.1465 82.7114 74.1465C82.0767 74.1465 81.5151 74.0342 81.0269 73.8096C80.5386 73.585 80.1553 73.2725 79.877 72.8721C79.6035 72.4668 79.4668 72.0298 79.4668 71.561H80.8218C80.8462 72.0151 81.0269 72.3765 81.3638 72.645C81.7056 72.9087 82.1548 73.0405 82.7114 73.0405C83.2241 73.0405 83.6343 72.938 83.9419 72.7329C84.2544 72.5229 84.4106 72.2446 84.4106 71.8979ZM89.0029 74H87.6406V66.0752H89.0029V74ZM89.0176 62.7573H90.6582L88.6953 64.9106H87.604L89.0176 62.7573ZM92.709 74H91.354V62.75H92.709V74ZM96.3564 74H95.0015V66.0752H96.3564V74ZM94.8916 63.9731C94.8916 63.7534 94.9575 63.5679 95.0894 63.4165C95.2261 63.2651 95.4263 63.1895 95.6899 63.1895C95.9536 63.1895 96.1538 63.2651 96.2905 63.4165C96.4272 63.5679 96.4956 63.7534 96.4956 63.9731C96.4956 64.1929 96.4272 64.376 96.2905 64.5225C96.1538 64.6689 95.9536 64.7422 95.6899 64.7422C95.4263 64.7422 95.2261 64.6689 95.0894 64.5225C94.9575 64.376 94.8916 64.1929 94.8916 63.9731ZM103.424 74C103.346 73.8438 103.283 73.5654 103.234 73.165C102.604 73.8193 101.852 74.1465 100.978 74.1465C100.197 74.1465 99.5547 73.9268 99.0518 73.4873C98.5537 73.043 98.3047 72.4814 98.3047 71.8027C98.3047 70.9775 98.6172 70.3379 99.2422 69.8838C99.8721 69.4248 100.756 69.1953 101.894 69.1953H103.212V68.5728C103.212 68.0991 103.07 67.7231 102.787 67.4448C102.504 67.1616 102.086 67.02 101.535 67.02C101.051 67.02 100.646 67.1421 100.319 67.3862C99.9917 67.6304 99.8281 67.9258 99.8281 68.2725H98.4658C98.4658 67.877 98.605 67.4961 98.8833 67.1299C99.1665 66.7588 99.5474 66.4658 100.026 66.251C100.509 66.0361 101.039 65.9287 101.615 65.9287C102.528 65.9287 103.244 66.1582 103.761 66.6172C104.279 67.0713 104.547 67.6987 104.567 68.4995V72.147C104.567 72.8745 104.66 73.4531 104.845 73.8828V74H103.424ZM101.176 72.9673C101.601 72.9673 102.003 72.8574 102.384 72.6377C102.765 72.418 103.041 72.1323 103.212 71.7808V70.1548H102.15C100.49 70.1548 99.6597 70.6406 99.6597 71.6123C99.6597 72.0371 99.8013 72.3691 100.084 72.6084C100.368 72.8477 100.731 72.9673 101.176 72.9673Z" fill="white"/>
</svg>
